<?xml version="1.0" encoding="utf-8"?>
<svg viewBox="0 0 24 24" xmlns="http://www.w3.org/2000/svg" width="80" height="80">
  <path d="M 352.573 242.52 C 352.035 240.493 351.165 238.57 349.998 236.828 C 350.248 235.911 350.439 234.979 350.566 234.037 C 351.395 228.061 349.323 222.59 345.419 218.357 C 343.304 216.045 341.037 214.518 338.636 213.581 C 340.212 206.838 341.009 199.937 341.013 193.013 C 341.013 189.85 340.834 186.752 340.534 183.7 C 340.378 182.176 340.189 180.656 339.967 179.14 C 339.28 174.667 338.26 170.251 336.916 165.93 C 336.035 163.091 335.016 160.296 333.862 157.556 C 332.133 153.498 330.114 149.57 327.821 145.802 C 326.317 143.295 324.679 140.871 322.914 138.54 C 322.049 137.363 321.148 136.214 320.21 135.094 C 317.432 131.718 314.413 128.548 311.177 125.608 C 310.102 124.62 308.997 123.666 307.862 122.746 C 306.745 121.815 305.603 120.913 304.438 120.042 C 302.093 118.297 299.67 116.659 297.176 115.135 C 283.395 106.765 267.234 101.965 249.961 101.965 C 199.669 101.965 158.909 142.727 158.909 193.016 C 158.907 200.028 159.719 207.016 161.329 213.84 C 159.169 214.778 157.099 216.24 155.179 218.355 C 151.276 222.586 149.203 228.037 150.032 234.013 C 150.158 234.962 150.347 235.902 150.599 236.826 C 149.433 238.569 148.564 240.493 148.026 242.52 C 146.826 247.081 147.221 251.194 148.746 254.798 C 147.088 259.508 147.502 264.524 149.661 268.885 C 151.231 272.07 153.478 274.534 156.248 276.736 C 159.541 279.354 163.663 281.578 168.635 283.712 C 174.567 286.242 181.808 288.619 185.101 289.491 C 193.607 291.693 201.763 293.089 210.029 293.157 C 221.806 293.266 231.948 290.497 239.209 283.41 C 242.776 283.847 246.367 284.066 249.961 284.064 C 253.758 284.056 257.551 283.817 261.319 283.349 C 268.563 290.481 278.744 293.275 290.564 293.163 C 298.829 293.097 306.985 291.701 315.469 289.496 C 318.784 288.624 326.022 286.247 331.957 283.717 C 336.929 281.58 341.051 279.356 344.366 276.742 C 347.115 274.539 349.36 272.076 350.931 268.891 C 353.112 264.529 353.504 259.513 351.869 254.803 C 353.379 251.199 353.772 247.077 352.573 242.52 Z M 344.133 254.493 C 345.804 257.664 345.911 261.247 344.437 264.584 C 342.201 269.641 336.647 273.625 325.86 277.902 C 319.152 280.562 313.01 282.263 312.956 282.278 C 304.084 284.579 296.06 285.748 289.114 285.748 C 277.612 285.748 269.053 282.574 263.625 276.306 C 254.446 277.87 245.074 277.923 235.878 276.464 C 230.443 282.628 221.933 285.748 210.528 285.748 C 203.581 285.748 195.558 284.579 186.685 282.278 C 186.631 282.263 180.491 280.562 173.781 277.902 C 162.995 273.625 157.439 269.644 155.204 264.584 C 153.73 261.247 153.837 257.664 155.508 254.493 C 155.662 254.198 155.828 253.911 156.005 253.633 C 155.004 252.129 154.332 250.43 154.034 248.647 C 153.736 246.865 153.819 245.04 154.277 243.292 C 154.941 240.769 156.312 238.671 158.174 237.164 C 157.277 235.69 156.689 234.05 156.444 232.342 C 155.908 228.628 157.141 224.92 159.914 221.896 C 162.074 219.543 165.127 218.248 168.507 218.248 L 168.597 218.248 C 166.049 210.079 164.757 201.57 164.765 193.013 C 164.765 146.342 202.601 108.503 249.279 108.503 C 295.956 108.503 333.792 146.338 333.792 193.013 C 333.799 201.593 332.498 210.124 329.933 218.312 C 330.341 218.272 330.741 218.252 331.134 218.251 C 334.514 218.251 337.568 219.546 339.726 221.899 C 342.499 224.92 343.733 228.631 343.196 232.345 C 342.952 234.053 342.363 235.693 341.467 237.167 C 343.329 238.674 344.701 240.772 345.364 243.295 C 345.822 245.043 345.905 246.868 345.607 248.651 C 345.31 250.433 344.638 252.132 343.636 253.636 C 343.813 253.911 343.981 254.198 344.133 254.493 Z" fill="white"/>
  <path d="M 343.636 253.636 C 344.638 252.132 345.31 250.433 345.608 248.651 C 345.905 246.868 345.822 245.043 345.364 243.295 C 344.7 240.772 343.328 238.674 341.467 237.167 C 342.364 235.693 342.952 234.053 343.196 232.345 C 343.733 228.631 342.5 224.923 339.726 221.899 C 337.568 219.546 334.514 218.251 331.134 218.251 C 330.741 218.251 330.341 218.272 329.933 218.312 C 332.495 210.124 333.794 201.594 333.785 193.015 C 333.785 146.343 295.949 108.505 249.276 108.505 C 202.602 108.505 164.762 146.339 164.762 193.015 C 164.754 201.572 166.046 210.081 168.594 218.25 L 168.504 218.25 C 165.124 218.25 162.071 219.544 159.912 221.897 C 157.139 224.918 155.905 228.63 156.442 232.343 C 156.687 234.051 157.275 235.692 158.172 237.166 C 156.31 238.672 154.938 240.77 154.274 243.293 C 153.816 245.042 153.734 246.867 154.032 248.65 C 154.33 250.432 155.002 252.132 156.004 253.636 C 155.826 253.914 155.662 254.201 155.507 254.496 C 153.837 257.667 153.729 261.25 155.204 264.587 C 157.44 269.644 162.994 273.628 173.781 277.905 C 180.488 280.565 186.631 282.266 186.685 282.281 C 195.557 284.582 203.581 285.751 210.527 285.751 C 221.933 285.751 230.443 282.631 235.878 276.467 C 245.074 277.926 254.446 277.872 263.625 276.309 C 269.053 282.577 277.612 285.751 289.114 285.751 C 296.06 285.751 304.084 284.582 312.955 282.281 C 313.01 282.266 319.15 280.565 325.86 277.905 C 336.647 273.628 342.202 269.644 344.437 264.587 C 345.911 261.25 345.804 257.667 344.133 254.496 C 343.981 254.199 343.813 253.911 343.636 253.636 Z M 231.989 266.817 C 231.521 267.635 231.02 268.434 230.487 269.211 C 229.082 271.268 227.234 272.84 225.089 274.008 C 220.989 276.244 215.799 277.025 210.527 277.025 C 202.198 277.025 193.66 275.076 188.875 273.835 C 188.639 273.774 159.541 265.555 163.225 258.559 C 163.845 257.382 164.865 256.912 166.15 256.912 C 171.337 256.912 180.782 264.636 184.841 264.636 C 185.748 264.636 186.388 264.25 186.649 263.308 C 188.379 257.104 160.356 254.496 162.716 245.512 C 163.132 243.922 164.262 243.276 165.85 243.276 C 172.708 243.275 188.1 255.336 191.319 255.336 C 191.566 255.336 191.743 255.263 191.839 255.111 C 191.853 255.088 191.867 255.066 191.88 255.042 C 193.391 252.547 192.524 250.733 182.173 244.393 L 181.179 243.788 C 169.788 236.894 161.793 232.745 166.34 227.795 C 166.863 227.224 167.605 226.971 168.506 226.971 C 169.574 226.971 170.867 227.328 172.291 227.928 C 178.307 230.465 186.645 237.384 190.128 240.401 C 190.676 240.877 191.221 241.358 191.761 241.842 C 191.761 241.842 196.171 246.428 198.837 246.428 C 199.451 246.428 199.972 246.186 200.325 245.588 C 202.216 242.4 182.762 227.658 181.665 221.575 C 180.921 217.454 182.187 215.366 184.527 215.366 C 185.64 215.366 186.998 215.84 188.497 216.791 C 193.147 219.742 202.125 235.17 205.412 241.172 C 206.514 243.183 208.395 244.033 210.09 244.033 C 213.453 244.033 216.082 240.69 210.398 236.442 C 201.855 230.05 204.853 219.602 208.93 218.959 C 209.104 218.931 209.28 218.917 209.455 218.917 C 213.163 218.917 214.798 225.306 214.798 225.306 C 214.798 225.306 219.592 237.344 227.827 245.573 C 235.299 253.042 236.343 259.171 231.989 266.817 Z M 258.618 268.227 L 258.191 268.278 L 257.463 268.361 C 257.08 268.401 256.696 268.439 256.311 268.474 L 255.936 268.508 L 255.593 268.537 L 255.107 268.576 L 254.57 268.615 L 254.034 268.65 L 253.915 268.658 C 253.775 268.666 253.635 268.675 253.493 268.682 L 253.314 268.692 C 253.148 268.701 252.982 268.709 252.814 268.716 L 252.233 268.741 L 251.706 268.759 L 251.354 268.769 L 251.175 268.769 C 251.065 268.769 250.956 268.775 250.846 268.776 L 250.672 268.776 C 250.562 268.776 250.453 268.776 250.343 268.781 L 249.895 268.787 L 249.27 268.787 C 248.779 268.787 248.289 268.782 247.801 268.772 L 247.405 268.763 C 247.292 268.763 247.179 268.758 247.068 268.754 L 246.648 268.742 L 246.127 268.722 L 245.657 268.701 L 245.536 268.696 L 245.089 268.673 C 244.964 268.666 244.841 268.66 244.717 268.651 L 244.428 268.634 C 244.065 268.611 243.702 268.586 243.339 268.558 L 242.959 268.527 C 242.799 268.515 242.639 268.5 242.48 268.486 C 242.293 268.47 242.106 268.452 241.919 268.434 C 241.606 268.405 241.293 268.373 240.98 268.339 L 240.965 268.339 C 245.535 258.144 243.224 248.622 233.989 239.395 C 227.932 233.346 223.903 224.414 223.067 222.453 C 221.375 216.648 216.897 210.195 209.46 210.195 C 208.831 210.195 208.203 210.245 207.582 210.343 C 204.324 210.856 201.476 212.731 199.444 215.553 C 197.248 212.822 195.114 210.651 193.184 209.425 C 190.274 207.58 187.37 206.644 184.541 206.644 C 181.01 206.644 177.854 208.094 175.654 210.724 L 175.598 210.791 C 175.556 210.618 175.516 210.445 175.475 210.271 L 175.47 210.248 C 175.051 208.458 174.7 206.653 174.416 204.836 C 174.416 204.824 174.416 204.812 174.41 204.8 C 174.388 204.663 174.368 204.525 174.347 204.388 C 174.286 203.982 174.228 203.575 174.174 203.168 C 174.15 202.983 174.124 202.798 174.101 202.613 L 174.033 202.058 C 174.011 201.873 173.993 201.705 173.973 201.529 L 173.967 201.485 C 173.887 200.765 173.817 200.045 173.757 199.323 L 173.735 199.046 L 173.7 198.574 C 173.69 198.445 173.68 198.315 173.673 198.185 C 173.673 198.154 173.668 198.124 173.667 198.095 C 173.642 197.733 173.62 197.37 173.602 197.007 C 173.592 196.818 173.582 196.63 173.574 196.44 L 173.554 195.944 L 173.549 195.794 L 173.533 195.337 L 173.523 194.948 C 173.523 194.793 173.515 194.638 173.513 194.483 C 173.51 194.328 173.506 194.158 173.505 193.994 C 173.503 193.83 173.505 193.668 173.5 193.505 C 173.496 193.341 173.5 193.178 173.5 193.015 C 173.5 151.162 207.431 117.231 249.288 117.231 C 291.144 117.231 325.074 151.161 325.074 193.015 L 325.074 193.994 C 325.074 194.157 325.069 194.321 325.066 194.483 C 325.066 194.618 325.06 194.751 325.056 194.888 C 325.056 195.008 325.051 195.129 325.047 195.245 C 325.047 195.398 325.038 195.551 325.033 195.704 L 325.033 195.716 L 325.012 196.247 C 325.005 196.402 324.999 196.558 324.991 196.713 L 324.986 196.823 L 324.959 197.319 C 324.9 198.382 324.819 199.443 324.718 200.503 L 324.718 200.516 C 324.701 200.69 324.684 200.864 324.665 201.038 L 324.62 201.449 L 324.531 202.253 L 324.48 202.66 L 324.417 203.139 C 324.394 203.313 324.371 203.488 324.345 203.661 C 324.319 203.856 324.29 204.05 324.261 204.244 L 324.192 204.703 L 324.11 205.223 C 324.082 205.396 324.052 205.568 324.02 205.74 C 323.987 205.913 323.961 206.085 323.931 206.257 C 323.871 206.601 323.808 206.945 323.742 207.288 C 323.641 207.801 323.538 208.313 323.432 208.825 L 323.322 209.332 C 323.286 209.501 323.247 209.671 323.209 209.84 C 321.076 207.767 318.251 206.638 315.136 206.638 C 312.309 206.638 309.402 207.573 306.493 209.418 C 304.563 210.644 302.43 212.816 300.233 215.546 C 298.198 212.724 295.35 210.849 292.094 210.336 C 291.473 210.238 290.845 210.188 290.216 210.188 C 282.777 210.188 278.302 216.641 276.609 222.446 C 275.769 224.407 271.739 233.339 265.677 239.397 C 256.448 248.595 254.12 258.074 258.618 268.227 Z M 336.859 247.818 L 336.829 247.907 C 336.753 248.108 336.665 248.304 336.566 248.494 C 336.491 248.634 336.41 248.77 336.322 248.902 C 336.155 249.151 335.972 249.389 335.773 249.613 C 335.727 249.665 335.683 249.717 335.631 249.768 C 335.559 249.845 335.486 249.921 335.411 249.995 C 334.065 251.329 332.013 252.499 329.693 253.572 C 329.43 253.691 329.163 253.81 328.894 253.93 L 328.626 254.049 C 328.447 254.128 328.268 254.206 328.08 254.283 C 327.901 254.361 327.715 254.439 327.529 254.515 L 326.971 254.745 C 325.666 255.282 324.329 255.794 323.025 256.299 L 322.467 256.516 L 321.916 256.732 C 321.549 256.875 321.187 257.018 320.831 257.161 L 320.3 257.375 L 319.778 257.588 L 319.522 257.696 C 319.351 257.767 319.184 257.838 319.017 257.909 C 315.18 259.556 312.419 261.231 312.999 263.309 C 313.015 263.368 313.033 263.424 313.053 263.479 C 313.105 263.633 313.176 263.778 313.265 263.915 C 313.317 263.996 313.377 264.073 313.444 264.143 C 314.126 264.852 315.367 264.74 316.932 264.177 C 317.152 264.096 317.371 264.012 317.588 263.924 L 317.724 263.868 C 318.082 263.716 318.461 263.546 318.848 263.362 C 318.945 263.316 319.043 263.272 319.141 263.221 C 321.055 262.285 323.224 261.025 325.376 259.878 C 326.237 259.413 327.11 258.972 327.994 258.553 C 330.032 257.594 331.948 256.914 333.488 256.914 C 334.211 256.914 334.849 257.062 335.381 257.402 L 335.47 257.461 C 335.804 257.696 336.084 257.998 336.293 258.348 C 336.334 258.415 336.374 258.486 336.413 258.559 C 337.174 260.004 336.537 261.5 335.046 262.967 C 333.615 264.376 331.389 265.757 328.859 267.035 C 328.671 267.13 328.483 267.225 328.292 267.318 C 320.762 271.016 310.901 273.801 310.764 273.836 C 308.136 274.517 304.378 275.411 300.144 276.08 L 299.518 276.178 L 299.415 276.193 C 298.941 276.265 298.466 276.332 297.99 276.394 C 297.507 276.459 297.019 276.518 296.528 276.573 L 296.438 276.583 C 294.658 276.788 292.871 276.924 291.08 276.989 L 291.054 276.989 C 290.406 277.012 289.759 277.024 289.111 277.024 L 288.364 277.024 C 287.376 277.011 286.39 276.966 285.405 276.89 C 285.382 276.89 285.357 276.89 285.334 276.884 C 284.981 276.857 284.629 276.824 284.277 276.785 C 283.912 276.746 283.548 276.702 283.185 276.653 C 282.946 276.621 282.708 276.585 282.47 276.546 C 282.228 276.507 281.986 276.467 281.745 276.425 L 281.416 276.363 L 281.391 276.358 C 281.044 276.292 280.699 276.219 280.355 276.139 C 280.155 276.094 279.956 276.05 279.759 275.996 L 279.64 275.966 C 279.542 275.942 279.447 275.916 279.35 275.89 L 279.297 275.876 L 278.989 275.786 C 278.877 275.755 278.765 275.721 278.653 275.688 L 278.614 275.677 L 278.323 275.588 C 278.213 275.554 278.103 275.518 277.994 275.482 L 277.726 275.393 L 277.529 275.324 C 277.339 275.257 277.15 275.188 276.963 275.116 L 276.785 275.046 L 276.638 274.988 C 276.354 274.874 276.072 274.755 275.793 274.63 L 275.608 274.54 L 275.577 274.526 C 275.511 274.495 275.446 274.464 275.38 274.437 C 275.251 274.375 275.123 274.311 274.996 274.246 L 274.957 274.227 L 274.773 274.13 C 274.446 273.959 274.126 273.777 273.812 273.584 L 273.64 273.478 C 273.554 273.425 273.468 273.37 273.384 273.314 L 273.16 273.166 L 272.919 273 L 272.775 272.897 C 272.623 272.789 272.474 272.677 272.328 272.562 L 272.095 272.383 C 272.002 272.308 271.91 272.232 271.819 272.155 C 271.742 272.092 271.667 272.026 271.592 271.96 L 271.586 271.955 C 271.505 271.884 271.426 271.813 271.347 271.74 C 271.269 271.669 271.191 271.597 271.115 271.524 L 271.106 271.515 C 271.026 271.439 270.948 271.362 270.871 271.283 C 270.794 271.205 270.715 271.127 270.64 271.047 C 270.565 270.968 270.488 270.887 270.414 270.804 C 270.34 270.722 270.272 270.647 270.202 270.566 L 270.179 270.539 C 270.111 270.461 270.044 270.382 269.978 270.301 C 269.835 270.13 269.696 269.955 269.562 269.776 C 269.427 269.596 269.295 269.412 269.166 269.225 L 269.043 269.041 C 268.879 268.801 268.719 268.559 268.564 268.313 C 268.448 268.136 268.335 267.958 268.225 267.777 C 268.154 267.664 268.086 267.55 268.018 267.438 L 267.99 267.392 C 267.925 267.282 267.861 267.174 267.799 267.065 C 267.763 267.006 267.729 266.947 267.697 266.886 C 267.664 266.824 267.626 266.761 267.591 266.698 L 267.534 266.599 L 267.499 266.535 C 267.432 266.415 267.366 266.294 267.302 266.172 C 267.272 266.118 267.243 266.064 267.212 266.012 L 267.123 265.839 L 267.033 265.668 C 266.808 265.218 266.595 264.762 266.395 264.3 L 266.324 264.131 C 266.278 264.018 266.235 263.906 266.189 263.795 C 266.167 263.741 266.145 263.688 266.126 263.634 C 266.019 263.357 265.919 263.077 265.827 262.795 C 265.794 262.694 265.762 262.595 265.732 262.495 C 265.66 262.268 265.595 262.039 265.537 261.808 C 265.466 261.539 265.403 261.268 265.35 260.995 C 265.339 260.94 265.328 260.885 265.319 260.832 C 265.267 260.565 265.225 260.296 265.192 260.026 C 265.184 259.973 265.178 259.92 265.172 259.867 L 265.155 259.705 C 265.133 259.493 265.116 259.28 265.106 259.067 C 265.106 259.013 265.101 258.959 265.099 258.907 C 265.094 258.801 265.092 258.695 265.091 258.589 C 265.035 254.316 267.197 250.208 271.82 245.587 C 280.055 237.36 284.849 225.321 284.849 225.321 C 284.849 225.321 284.978 224.816 285.246 224.089 C 285.283 223.988 285.322 223.884 285.366 223.775 C 285.522 223.368 285.698 222.968 285.893 222.578 L 285.932 222.503 C 286.098 222.171 286.28 221.847 286.476 221.532 C 286.522 221.459 286.566 221.387 286.617 221.314 C 286.764 221.097 286.919 220.885 287.082 220.68 C 287.171 220.569 287.268 220.459 287.365 220.352 C 287.404 220.31 287.442 220.268 287.483 220.228 C 287.96 219.735 288.505 219.333 289.122 219.119 L 289.2 219.093 C 289.252 219.076 289.304 219.06 289.357 219.045 C 289.418 219.029 289.479 219.015 289.542 219.002 L 289.571 218.996 C 289.701 218.97 289.833 218.953 289.966 218.944 L 289.977 218.944 C 290.046 218.944 290.116 218.937 290.187 218.937 C 290.276 218.937 290.359 218.937 290.446 218.946 C 290.536 218.954 290.625 218.964 290.715 218.978 C 291.457 219.096 292.163 219.538 292.771 220.22 C 293.002 220.48 293.21 220.76 293.392 221.056 C 293.512 221.248 293.625 221.451 293.732 221.665 C 293.775 221.754 293.816 221.836 293.856 221.924 C 293.96 222.15 294.054 222.38 294.136 222.615 C 294.331 223.165 294.478 223.731 294.575 224.307 C 294.659 224.812 294.709 225.322 294.725 225.833 C 294.733 226.106 294.733 226.383 294.725 226.662 C 294.671 227.96 294.405 229.241 293.938 230.454 C 293.896 230.565 293.849 230.677 293.804 230.789 C 293.712 231.015 293.611 231.237 293.502 231.454 C 293.421 231.619 293.336 231.785 293.244 231.95 C 293.184 232.06 293.121 232.17 293.058 232.28 C 292.897 232.554 292.723 232.826 292.536 233.097 L 292.423 233.259 C 291.981 233.875 291.489 234.453 290.951 234.987 C 290.421 235.518 289.853 236.009 289.252 236.457 C 288.65 236.903 288.085 237.397 287.563 237.934 C 286.06 239.511 285.71 240.903 286.048 241.958 C 286.102 242.124 286.173 242.285 286.259 242.437 C 286.36 242.611 286.48 242.771 286.616 242.917 L 286.669 242.972 L 286.723 243.026 C 286.777 243.078 286.834 243.129 286.895 243.179 L 286.955 243.227 C 287.1 243.339 287.254 243.439 287.415 243.527 C 287.462 243.552 287.504 243.577 287.557 243.601 C 287.731 243.686 287.91 243.759 288.094 243.818 C 288.145 243.835 288.196 243.85 288.248 243.866 L 288.313 243.883 L 288.403 243.907 L 288.48 243.926 L 288.564 243.944 L 288.647 243.961 L 288.726 243.974 C 288.784 243.984 288.844 243.994 288.904 244.001 L 288.961 244.01 L 289.065 244.02 L 289.129 244.027 L 289.234 244.034 L 289.296 244.034 L 289.406 244.04 L 289.752 244.04 L 289.851 244.034 L 289.965 244.027 L 290.104 244.014 L 290.234 243.999 C 290.264 243.999 290.294 243.991 290.324 243.985 C 290.724 243.927 291.116 243.821 291.491 243.669 L 291.65 243.602 C 291.739 243.563 291.829 243.522 291.911 243.478 C 292.087 243.39 292.258 243.29 292.422 243.181 C 292.651 243.031 292.867 242.863 293.069 242.678 C 293.117 242.635 293.164 242.589 293.21 242.545 C 293.233 242.523 293.255 242.502 293.277 242.478 C 293.321 242.433 293.366 242.389 293.41 242.34 C 293.73 241.988 294.007 241.6 294.235 241.183 C 296.192 237.624 298.243 234.118 300.386 230.669 L 300.68 230.198 L 300.977 229.727 C 301.125 229.488 301.275 229.253 301.424 229.019 L 301.574 228.785 C 302.072 228.005 302.578 227.23 303.093 226.461 L 303.398 226.005 C 304.01 225.098 304.62 224.216 305.225 223.378 L 305.526 222.963 C 306.184 222.056 306.869 221.168 307.58 220.302 L 307.862 219.964 C 307.909 219.908 307.952 219.852 308.003 219.798 C 308.096 219.688 308.189 219.581 308.28 219.477 C 308.326 219.424 308.369 219.372 308.418 219.32 L 308.686 219.018 L 308.82 218.871 C 308.955 218.726 309.087 218.587 309.217 218.454 C 309.307 218.364 309.39 218.275 309.476 218.191 C 309.983 217.673 310.542 217.208 311.145 216.805 L 311.285 216.715 C 311.419 216.625 311.558 216.541 311.7 216.465 C 314.064 215.123 316.021 215.024 317.148 216.151 C 317.83 216.833 318.208 217.964 318.187 219.538 C 318.187 219.607 318.187 219.677 318.182 219.749 L 318.182 219.826 C 318.182 219.898 318.176 219.97 318.17 220.043 C 318.17 220.133 318.16 220.222 318.151 220.312 C 318.142 220.401 318.137 220.469 318.128 220.549 C 318.128 220.571 318.124 220.594 318.12 220.618 C 318.114 220.687 318.105 220.758 318.095 220.829 C 318.095 220.85 318.095 220.872 318.087 220.894 C 318.076 220.989 318.062 221.083 318.046 221.177 C 318.035 221.267 318.02 221.351 318.004 221.439 L 317.978 221.588 C 317.952 221.73 317.919 221.87 317.878 222.008 C 317.8 222.267 317.706 222.52 317.595 222.766 C 317.44 223.104 317.269 223.433 317.081 223.753 C 316.977 223.931 316.87 224.106 316.759 224.279 C 316.645 224.458 316.525 224.639 316.401 224.822 C 316.085 225.274 315.757 225.717 315.416 226.15 L 315.26 226.347 C 314.704 227.04 314.13 227.719 313.538 228.382 L 313.351 228.592 C 313.099 228.873 312.843 229.156 312.581 229.44 L 312.384 229.654 C 312.253 229.797 312.116 229.94 311.984 230.084 C 311.853 230.227 311.716 230.372 311.578 230.517 L 311.167 230.95 L 310.75 231.386 L 310.33 231.822 C 310.048 232.114 309.765 232.406 309.48 232.698 C 305.425 236.857 301.153 241.002 299.707 243.586 C 299.61 243.754 299.523 243.928 299.445 244.105 C 299.239 244.575 299.153 244.977 299.212 245.302 C 299.231 245.409 299.268 245.511 299.323 245.605 C 299.404 245.746 299.503 245.876 299.618 245.992 C 299.671 246.044 299.727 246.092 299.786 246.136 C 300.084 246.348 300.443 246.457 300.809 246.447 L 300.923 246.447 L 301.04 246.438 L 301.157 246.425 L 301.254 246.411 C 301.267 246.409 301.281 246.407 301.294 246.403 L 301.383 246.386 L 301.406 246.381 L 301.505 246.36 L 301.54 246.351 C 301.575 246.342 301.609 246.333 301.644 246.323 C 301.679 246.313 301.727 246.3 301.769 246.286 C 301.945 246.233 302.117 246.17 302.286 246.098 C 302.375 246.062 302.462 246.023 302.548 245.981 C 302.593 245.961 302.638 245.94 302.68 245.918 L 302.814 245.852 C 303.134 245.686 303.446 245.505 303.75 245.311 L 303.883 245.221 C 303.928 245.193 303.973 245.164 304.016 245.132 L 304.149 245.043 L 304.22 244.994 L 304.412 244.859 C 304.591 244.736 304.758 244.609 304.927 244.48 L 304.942 244.468 L 305.211 244.26 C 305.578 243.97 305.926 243.678 306.242 243.403 L 306.452 243.219 L 306.471 243.201 L 306.581 243.104 C 306.839 242.872 307.069 242.656 307.26 242.478 L 307.339 242.401 C 307.408 242.336 307.471 242.275 307.528 242.223 L 307.64 242.112 L 307.68 242.073 L 307.691 242.062 L 307.808 241.945 L 307.882 241.868 L 307.891 241.861 L 307.926 241.829 L 307.97 241.789 L 307.984 241.776 L 308.021 241.742 L 308.225 241.563 L 308.339 241.461 C 308.4 241.408 308.459 241.354 308.518 241.299 L 308.654 241.178 C 308.679 241.158 308.703 241.136 308.728 241.114 L 308.871 240.989 L 309.081 240.804 L 309.193 240.707 C 309.628 240.329 310.157 239.872 310.765 239.357 L 311.014 239.146 L 311.425 238.801 L 311.846 238.45 C 312.396 237.993 312.988 237.508 313.614 237.005 L 314.025 236.675 C 314.375 236.396 314.734 236.112 315.098 235.826 C 315.245 235.711 315.394 235.596 315.546 235.482 C 315.918 235.193 316.292 234.906 316.669 234.623 C 317.527 233.975 318.412 233.326 319.308 232.694 L 319.692 232.426 C 319.961 232.241 320.229 232.055 320.497 231.874 L 320.74 231.71 C 321.219 231.385 321.705 231.068 322.195 230.759 L 322.438 230.606 L 322.679 230.456 C 322.921 230.306 323.161 230.159 323.4 230.016 L 323.639 229.873 L 324.117 229.595 L 324.586 229.326 L 324.681 229.274 L 325.052 229.07 C 325.207 228.986 325.361 228.905 325.515 228.826 L 325.744 228.708 L 325.967 228.596 C 326.045 228.559 326.122 228.52 326.198 228.483 C 326.7 228.235 327.212 228.007 327.732 227.799 C 327.873 227.739 328.013 227.685 328.152 227.638 L 328.562 227.494 C 328.685 227.453 328.805 227.414 328.92 227.379 L 328.96 227.367 C 329.022 227.347 329.084 227.329 329.145 227.313 L 329.163 227.308 C 329.291 227.271 329.418 227.239 329.543 227.209 L 329.552 227.209 C 329.906 227.124 330.266 227.063 330.629 227.026 C 330.796 227.009 330.963 227 331.131 227.001 L 331.215 227.001 C 331.327 227.001 331.435 227.008 331.542 227.019 C 331.591 227.019 331.64 227.029 331.688 227.035 L 331.708 227.035 C 331.756 227.041 331.804 227.048 331.852 227.059 C 331.899 227.068 331.947 227.076 331.993 227.087 L 332.008 227.087 C 332.055 227.097 332.097 227.109 332.146 227.123 C 332.4 227.194 332.642 227.304 332.864 227.448 C 332.973 227.519 333.075 227.599 333.169 227.688 L 333.196 227.714 C 333.214 227.73 333.231 227.747 333.247 227.764 L 333.296 227.817 C 333.698 228.238 334.03 228.721 334.28 229.247 L 334.318 229.337 C 334.403 229.537 334.47 229.744 334.518 229.955 C 334.66 230.601 334.605 231.275 334.36 231.89 C 334.267 232.138 334.154 232.377 334.021 232.605 C 333.71 233.129 333.341 233.616 332.922 234.057 L 332.833 234.152 C 332.7 234.292 332.562 234.432 332.417 234.572 C 332.353 234.635 332.286 234.697 332.219 234.76 L 332.014 234.949 L 331.907 235.044 C 331.649 235.274 331.384 235.497 331.115 235.713 C 330.952 235.845 330.788 235.974 330.622 236.101 C 330.036 236.549 329.439 236.981 328.831 237.398 C 328.464 237.65 328.094 237.897 327.721 238.141 C 326.802 238.744 325.873 239.332 324.935 239.904 C 322.967 241.114 320.786 242.408 318.461 243.815 L 317.859 244.18 C 317.2 244.582 316.578 244.966 315.992 245.332 L 315.697 245.517 L 315.139 245.875 C 314.769 246.112 314.4 246.351 314.031 246.59 L 313.734 246.786 C 313.589 246.88 313.445 246.976 313.301 247.072 L 313.16 247.162 L 312.728 247.453 L 312.499 247.61 L 312.231 247.796 L 311.982 247.969 C 311.565 248.264 311.177 248.545 310.82 248.812 L 310.686 248.914 C 310.476 249.073 310.268 249.235 310.063 249.4 C 309.754 249.649 309.472 249.887 309.219 250.116 L 309.095 250.229 C 309.024 250.294 308.954 250.359 308.887 250.423 C 308.841 250.468 308.798 250.513 308.75 250.556 L 308.686 250.62 C 308.543 250.764 308.403 250.911 308.268 251.062 L 308.202 251.138 C 308.055 251.308 307.927 251.471 307.815 251.63 L 307.765 251.701 C 307.677 251.829 307.596 251.961 307.523 252.097 C 307.504 252.131 307.487 252.165 307.47 252.199 L 307.421 252.301 L 307.388 252.375 L 307.367 252.425 L 307.35 252.47 L 307.327 252.531 C 307.265 252.7 307.222 252.876 307.197 253.054 L 307.189 253.116 L 307.183 253.174 L 307.183 253.489 C 307.183 253.515 307.183 253.541 307.19 253.569 L 307.195 253.617 C 307.195 253.643 307.201 253.668 307.205 253.696 C 307.209 253.722 307.216 253.769 307.224 253.806 L 307.224 253.811 C 307.231 253.846 307.238 253.88 307.247 253.915 C 307.256 253.95 307.265 253.99 307.276 254.026 C 307.295 254.097 307.319 254.167 307.344 254.237 C 307.36 254.279 307.375 254.32 307.392 254.361 C 307.392 254.369 307.398 254.378 307.402 254.386 L 307.438 254.467 L 307.488 254.578 C 307.542 254.693 307.601 254.805 307.665 254.914 L 307.731 255.028 L 307.799 255.142 C 307.811 255.161 307.825 255.179 307.84 255.196 L 307.862 255.219 L 307.887 255.242 L 307.913 255.262 C 307.951 255.289 307.992 255.31 308.035 255.325 C 308.058 255.333 308.082 255.339 308.106 255.345 C 308.683 255.475 309.869 254.998 311.445 254.166 C 311.534 254.118 311.632 254.068 311.727 254.016 L 312.207 253.754 L 312.441 253.624 C 312.608 253.535 312.778 253.434 312.952 253.335 L 313.269 253.156 C 315.352 251.957 317.84 250.417 320.412 248.913 C 320.653 248.772 320.895 248.631 321.137 248.492 L 321.623 248.181 C 322.187 247.858 322.754 247.539 323.323 247.224 C 324.04 246.83 324.762 246.446 325.491 246.074 L 325.967 245.833 C 326.283 245.677 326.596 245.525 326.905 245.377 C 327.503 245.093 328.108 244.823 328.72 244.568 L 329.055 244.432 L 329.095 244.416 C 330.87 243.713 332.479 243.279 333.781 243.279 C 334.062 243.276 334.344 243.3 334.621 243.348 L 334.63 243.348 C 334.719 243.364 334.8 243.382 334.883 243.402 L 334.898 243.402 C 335.111 243.456 335.318 243.533 335.514 243.632 C 335.789 243.774 336.036 243.963 336.245 244.191 C 336.341 244.297 336.426 244.412 336.501 244.534 C 336.641 244.749 336.751 244.982 336.83 245.226 C 336.862 245.321 336.89 245.414 336.919 245.513 C 337.13 246.27 337.109 247.073 336.859 247.818 Z" style=""/>
  <path fill-rule="evenodd" clip-rule="evenodd" d="M 325.062 193.505 L 325.062 193.014 C 325.062 151.16 291.144 117.231 249.287 117.231 C 207.431 117.231 173.5 151.162 173.5 193.014 L 173.5 193.178 C 173.498 193.287 173.497 193.396 173.5 193.505 C 173.505 193.668 173.507 193.831 173.505 193.994 L 173.51 194.354 L 173.513 194.483 C 173.513 194.543 173.515 194.602 173.517 194.662 C 173.52 194.757 173.522 194.853 173.522 194.948 L 173.533 195.337 L 173.549 195.794 L 173.554 195.944 L 173.574 196.417 L 173.574 196.44 C 173.582 196.625 173.592 196.809 173.601 196.993 L 173.602 197.007 C 173.612 197.195 173.622 197.384 173.634 197.573 C 173.644 197.747 173.654 197.921 173.667 198.095 L 173.669 198.126 C 173.678 198.275 173.688 198.425 173.699 198.574 L 173.702 198.614 L 173.735 199.046 L 173.738 199.074 C 173.744 199.158 173.75 199.242 173.758 199.323 C 173.818 200.044 173.888 200.765 173.967 201.484 L 173.972 201.529 L 174.033 202.058 L 174.101 202.613 L 174.151 202.99 L 174.174 203.167 C 174.228 203.575 174.285 203.982 174.347 204.388 L 174.351 204.415 L 174.41 204.799 C 174.696 206.628 175.049 208.446 175.47 210.249 L 175.475 210.271 L 175.507 210.406 L 175.598 210.791 L 175.654 210.724 C 177.854 208.094 181.01 206.644 184.541 206.644 C 187.371 206.644 190.274 207.58 193.184 209.425 C 195.114 210.651 197.248 212.822 199.444 215.553 C 201.476 212.731 204.324 210.855 207.582 210.343 C 208.204 210.245 208.831 210.196 209.46 210.195 C 216.896 210.195 221.375 216.648 223.067 222.453 C 223.903 224.414 227.932 233.346 234.008 239.388 C 243.244 248.615 245.555 258.136 240.984 268.331 L 241 268.331 C 241.311 268.366 241.624 268.398 241.939 268.427 C 242.126 268.445 242.312 268.463 242.5 268.479 L 242.566 268.485 L 242.979 268.52 L 243.359 268.55 C 243.721 268.578 244.084 268.604 244.448 268.627 L 244.737 268.644 L 244.966 268.658 L 245.108 268.666 L 245.555 268.689 L 245.677 268.694 L 246.146 268.715 L 246.668 268.735 L 247.087 268.747 L 247.157 268.749 C 247.246 268.753 247.335 268.756 247.424 268.756 L 247.52 268.759 C 248.11 268.773 248.699 268.78 249.289 268.779 L 249.915 268.779 L 250.362 268.774 C 250.472 268.769 250.581 268.769 250.692 268.769 L 250.866 268.769 L 251.017 268.765 C 251.076 268.763 251.135 268.761 251.195 268.761 L 251.374 268.761 L 251.725 268.752 L 252.253 268.734 L 252.834 268.708 C 253.002 268.702 253.168 268.693 253.334 268.685 L 253.513 268.674 L 253.779 268.66 L 253.935 268.651 L 254.053 268.643 L 254.59 268.608 L 255.126 268.569 L 255.613 268.53 L 255.955 268.501 L 256.331 268.467 C 256.959 268.411 257.585 268.345 258.211 268.27 L 258.638 268.219 C 254.139 258.067 256.468 248.587 265.665 239.397 C 271.728 233.339 275.757 224.407 276.597 222.445 C 278.29 216.641 282.766 210.188 290.204 210.188 C 290.833 210.188 291.462 210.238 292.083 210.336 C 295.338 210.848 298.186 212.724 300.221 215.546 C 302.418 212.816 304.551 210.643 306.482 209.417 C 309.391 207.573 312.297 206.637 315.124 206.637 C 318.24 206.637 321.064 207.767 323.197 209.84 C 323.236 209.671 323.274 209.502 323.311 209.332 L 323.42 208.826 C 323.459 208.641 323.498 208.456 323.535 208.271 C 323.601 207.944 323.667 207.617 323.73 207.287 C 323.796 206.945 323.859 206.601 323.919 206.257 L 323.95 206.071 C 323.969 205.961 323.987 205.851 324.008 205.74 C 324.042 205.568 324.07 205.396 324.098 205.222 L 324.109 205.156 L 324.18 204.703 L 324.25 204.244 L 324.25 204.24 C 324.301 203.901 324.349 203.562 324.394 203.223 L 324.405 203.139 L 324.468 202.661 L 324.519 202.253 L 324.609 201.449 L 324.644 201.126 L 324.653 201.038 C 324.672 200.864 324.69 200.69 324.706 200.516 L 324.706 200.502 C 324.719 200.364 324.733 200.225 324.745 200.086 C 324.816 199.298 324.876 198.506 324.924 197.711 C 324.933 197.581 324.94 197.45 324.948 197.319 L 324.948 197.313 L 324.974 196.822 L 324.98 196.712 C 324.996 196.38 325.01 196.048 325.021 195.716 L 325.021 195.704 L 325.026 195.574 C 325.031 195.465 325.035 195.355 325.035 195.245 L 325.037 195.201 C 325.041 195.098 325.045 194.992 325.045 194.887 L 325.048 194.797 C 325.051 194.692 325.054 194.588 325.054 194.483 L 325.056 194.394 C 325.059 194.261 325.062 194.127 325.062 193.994 L 325.062 193.505 Z M 230.49 269.211 C 236.492 260.41 236.066 253.804 227.832 245.574 C 219.596 237.343 214.803 225.307 214.803 225.307 C 214.803 225.307 213.014 218.316 208.934 218.958 C 204.854 219.6 201.861 230.047 210.404 236.442 C 218.946 242.837 208.704 247.173 205.416 241.172 C 202.128 235.17 193.151 219.743 188.497 216.792 C 183.843 213.841 180.57 215.495 181.667 221.577 C 182.212 224.596 187.28 229.749 192.015 234.563 C 196.819 239.447 201.28 243.983 200.326 245.588 C 198.433 248.775 191.766 241.843 191.766 241.843 C 191.766 241.843 170.89 222.845 166.346 227.796 C 162.156 232.359 168.617 236.238 178.573 242.217 C 179.419 242.725 180.291 243.249 181.184 243.789 C 192.575 250.685 193.461 252.504 191.844 255.113 C 191.247 256.077 187.434 253.788 182.744 250.973 C 174.749 246.172 164.207 239.843 162.718 245.508 C 161.43 250.411 169.186 253.415 176.22 256.14 C 182.08 258.41 187.44 260.486 186.651 263.304 C 185.834 266.226 181.405 263.789 176.564 261.125 C 171.129 258.134 165.174 254.858 163.225 258.555 C 159.542 265.545 188.635 273.774 188.875 273.835 C 198.275 276.273 222.147 281.439 230.49 269.211 Z M 269.155 269.211 C 263.153 260.41 263.579 253.804 271.814 245.574 C 280.049 237.343 284.842 225.307 284.842 225.307 C 284.842 225.307 286.631 218.316 290.711 218.958 C 294.791 219.6 297.784 230.047 289.242 236.442 C 280.699 242.837 290.941 247.173 294.229 241.172 C 297.518 235.17 306.489 219.743 311.143 216.792 C 315.797 213.841 319.072 215.495 317.974 221.577 C 317.43 224.596 312.361 229.749 307.626 234.564 C 302.822 239.448 298.361 243.983 299.314 245.588 C 301.207 248.775 307.879 241.839 307.879 241.839 C 307.879 241.839 328.754 222.842 333.3 227.793 C 337.489 232.355 331.028 236.235 321.071 242.214 C 320.2 242.737 319.33 243.261 318.461 243.786 C 307.07 250.682 306.184 252.501 307.8 255.109 C 308.398 256.074 312.211 253.784 316.9 250.969 C 324.896 246.169 335.438 239.839 336.927 245.505 C 338.216 250.408 330.459 253.412 323.425 256.137 C 317.565 258.407 312.205 260.483 312.993 263.301 C 313.809 266.222 318.237 263.785 323.077 261.121 C 328.512 258.13 334.468 254.852 336.416 258.552 C 340.1 265.546 311.002 273.767 310.767 273.827 C 301.367 276.273 277.495 281.439 269.155 269.211 Z" style="fill: rgba(255, 255, 255, 0);"/>
  <path fill-rule="evenodd" clip-rule="evenodd" d="M 273.899 172.387 C 275.081 172.805 275.96 174.077 276.796 175.288 C 277.926 176.924 278.978 178.447 280.592 177.589 C 282.496 176.576 284.057 175.022 285.077 173.122 C 286.098 171.222 286.533 169.063 286.327 166.916 C 286.173 165.311 285.665 163.76 284.839 162.375 C 284.013 160.99 282.89 159.805 281.552 158.906 C 280.213 158.008 278.691 157.417 277.097 157.177 C 275.502 156.937 273.874 157.054 272.33 157.519 C 270.786 157.984 269.365 158.786 268.168 159.866 C 266.971 160.946 266.028 162.278 265.408 163.766 C 264.788 165.254 264.505 166.862 264.58 168.472 C 264.656 170.083 265.087 171.656 265.844 173.08 C 266.592 174.487 268.252 173.823 270.004 173.122 C 271.377 172.573 272.808 172.001 273.899 172.387 Z M 222.524 172.387 C 221.342 172.805 220.463 174.078 219.627 175.288 C 218.497 176.925 217.444 178.447 215.831 177.589 C 213.437 176.321 211.6 174.206 210.68 171.658 C 209.76 169.11 209.821 166.31 210.853 163.804 C 211.885 161.299 213.812 159.267 216.26 158.106 C 218.708 156.944 221.501 156.736 224.094 157.521 C 226.159 158.143 227.993 159.363 229.365 161.027 C 230.737 162.691 231.584 164.724 231.801 166.869 C 232.017 169.015 231.592 171.176 230.58 173.08 C 229.831 174.487 228.171 173.823 226.419 173.123 C 225.045 172.573 223.616 172.001 222.524 172.387 Z M 265.951 219.138 C 274.094 212.723 277.085 202.249 277.085 195.797 C 277.085 190.697 273.654 192.302 268.161 195.022 L 267.851 195.175 C 262.809 197.672 256.097 200.997 248.729 200.997 C 241.36 200.997 234.648 197.672 229.607 195.174 C 223.936 192.365 220.379 190.603 220.379 195.798 C 220.379 202.454 223.561 213.383 232.295 219.732 C 233.448 217.393 235.071 215.317 237.063 213.633 C 239.054 211.949 241.372 210.694 243.87 209.946 C 244.742 209.686 245.64 211.187 246.559 212.724 C 247.446 214.206 248.353 215.722 249.275 215.722 C 250.258 215.722 251.223 214.228 252.166 212.77 C 253.151 211.245 254.112 209.76 255.041 210.057 C 259.716 211.558 263.627 214.813 265.951 219.138 Z" fill="#32343D"/>
  <path d="M 265.949 219.137 C 261.708 222.479 256.071 224.72 248.73 224.72 C 241.833 224.72 236.439 222.742 232.295 219.731 C 233.448 217.392 235.071 215.315 237.063 213.632 C 239.054 211.948 241.372 210.693 243.87 209.945 C 245.582 209.434 247.397 215.721 249.275 215.721 C 251.285 215.721 253.222 209.475 255.041 210.056 C 259.715 211.558 263.625 214.813 265.949 219.137 Z" style="fill: rgb(145, 137, 123);"/>
  <path fill-rule="evenodd" clip-rule="evenodd" d="M 203.052 181.46 C 202.083 182.108 200.97 182.507 199.809 182.621 C 198.649 182.736 197.479 182.562 196.402 182.115 C 195.542 181.76 194.759 181.238 194.101 180.579 C 193.443 179.921 192.921 179.139 192.565 178.278 C 192.119 177.201 191.946 176.031 192.06 174.871 C 192.175 173.711 192.574 172.597 193.222 171.628 C 194.001 170.462 195.108 169.554 196.403 169.017 C 197.699 168.48 199.124 168.34 200.499 168.614 C 201.875 168.887 203.138 169.563 204.129 170.554 C 205.12 171.546 205.794 172.81 206.067 174.185 C 206.341 175.56 206.2 176.985 205.664 178.28 C 205.127 179.575 204.218 180.681 203.052 181.46 Z M 304.465 181.46 C 303.496 182.108 302.382 182.507 301.222 182.621 C 300.061 182.736 298.891 182.562 297.814 182.115 C 296.953 181.759 296.171 181.238 295.513 180.579 C 294.855 179.921 294.333 179.139 293.977 178.278 C 293.532 177.201 293.359 176.031 293.473 174.871 C 293.588 173.711 293.987 172.597 294.634 171.628 C 295.216 170.756 295.985 170.025 296.884 169.486 C 297.783 168.947 298.79 168.614 299.833 168.512 C 300.877 168.409 301.93 168.54 302.916 168.893 C 303.903 169.247 304.799 169.815 305.54 170.556 C 306.532 171.547 307.207 172.81 307.48 174.185 C 307.754 175.56 307.613 176.985 307.076 178.28 C 306.539 179.575 305.631 180.681 304.465 181.46 Z" style="fill: rgb(145, 137, 123);"/>
</svg>